<svg width="14" height="16" viewBox="0 0 14 16" fill="none" xmlns="http://www.w3.org/2000/svg">
<path d="M12.9531 9.57812L7.32811 15.2031C7.28579 15.2476 7.23489 15.2829 7.17848 15.3071C7.12208 15.3313 7.06135 15.3438 6.99999 15.3438C6.93862 15.3438 6.8779 15.3313 6.82149 15.3071C6.76509 15.2829 6.71418 15.2476 6.67186 15.2031L1.04686 9.57812C0.959839 9.4911 0.91095 9.37307 0.91095 9.25C0.91095 9.12693 0.959839 9.0089 1.04686 8.92188C1.13389 8.83485 1.25192 8.78596 1.37499 8.78596C1.49806 8.78596 1.61609 8.83485 1.70311 8.92188L6.53124 13.7422V1.125C6.53124 1.00068 6.58062 0.881451 6.66853 0.793544C6.75644 0.705636 6.87567 0.65625 6.99999 0.65625C7.12431 0.65625 7.24354 0.705636 7.33145 0.793544C7.41935 0.881451 7.46874 1.00068 7.46874 1.125V13.7422L12.2969 8.92188C12.3839 8.83485 12.5019 8.78596 12.625 8.78596C12.7481 8.78596 12.8661 8.83485 12.9531 8.92188C13.0401 9.0089 13.089 9.12693 13.089 9.25C13.089 9.37307 13.0401 9.4911 12.9531 9.57812Z" fill="#DAC5A7"/>
</svg>
