<svg width="20" height="20" viewBox="0 0 20 20" fill="none" xmlns="http://www.w3.org/2000/svg">
<path d="M15.9531 9.07812C15.9107 9.12256 15.8598 9.15794 15.8034 9.18211C15.747 9.20629 15.6863 9.21875 15.6249 9.21875C15.5636 9.21875 15.5028 9.20629 15.4464 9.18211C15.39 9.15794 15.3391 9.12256 15.2968 9.07812L10.4687 4.25781V16.875C10.4687 16.9993 10.4193 17.1185 10.3314 17.2065C10.2435 17.2944 10.1242 17.3438 9.99993 17.3438C9.87561 17.3438 9.75638 17.2944 9.66847 17.2065C9.58056 17.1185 9.53118 16.9993 9.53118 16.875V4.25781L4.70305 9.07812C4.61603 9.16515 4.498 9.21404 4.37493 9.21404C4.25186 9.21404 4.13383 9.16515 4.0468 9.07812C3.95978 8.9911 3.91089 8.87307 3.91089 8.75C3.91089 8.62693 3.95978 8.5089 4.0468 8.42188L9.6718 2.79687C9.71412 2.75244 9.76503 2.71706 9.82143 2.69289C9.87784 2.66871 9.93856 2.65625 9.99993 2.65625C10.0613 2.65625 10.122 2.66871 10.1784 2.69289C10.2348 2.71706 10.2857 2.75244 10.3281 2.79687L15.9531 8.42188C15.9975 8.4642 16.0329 8.5151 16.057 8.57151C16.0812 8.62791 16.0937 8.68863 16.0937 8.75C16.0937 8.81137 16.0812 8.87209 16.057 8.92849C16.0329 8.9849 15.9975 9.0358 15.9531 9.07812Z" fill="#DAC5A7"/>
</svg>
