<svg width="20" height="20" viewBox="0 0 20 20" fill="none" xmlns="http://www.w3.org/2000/svg">
<path d="M19.1797 5.44535C19.1444 5.36028 19.0848 5.2875 19.0084 5.23609C18.932 5.18468 18.8421 5.15692 18.75 5.15628H16.2813C15.9761 4.59583 15.5273 4.12674 14.9808 3.79721C14.4343 3.46769 13.81 3.28961 13.1719 3.28128C12.2132 3.27712 11.2918 3.65291 10.6095 4.32643C9.92723 4.99995 9.53953 5.91634 9.53127 6.87503V7.55472C6.21877 6.76566 3.48439 4.07035 3.45314 4.04691C3.39292 3.98745 3.31771 3.94541 3.23552 3.92525C3.15332 3.90508 3.0672 3.90755 2.98629 3.93238C2.90539 3.95721 2.83271 4.00349 2.77598 4.06629C2.71925 4.1291 2.68058 4.20609 2.66408 4.2891C1.98439 8.00785 3.10158 10.4922 4.15627 11.9219C4.71565 12.6874 5.40279 13.3508 6.18752 13.8828C4.97658 15.3516 2.98439 16.1172 2.96096 16.125C2.8944 16.1495 2.83439 16.1891 2.78561 16.2406C2.73683 16.2921 2.70058 16.3541 2.67971 16.4219C2.65754 16.4881 2.65094 16.5584 2.66043 16.6275C2.66991 16.6966 2.69522 16.7626 2.73439 16.8203C2.81252 16.9375 3.57814 17.9688 6.25002 17.9688C11.6953 17.9688 16.25 13.7578 16.6875 8.3516L19.0781 5.95316C19.1459 5.88967 19.1921 5.80659 19.2103 5.71553C19.2285 5.62448 19.2178 5.53001 19.1797 5.44535ZM15.8985 7.81253C15.8172 7.89361 15.7697 8.0025 15.7656 8.11722C15.4453 13.1172 11.2656 17.0313 6.25002 17.0313C5.16408 17.0313 4.46877 16.8438 4.05471 16.6563C4.93752 16.211 6.38283 15.336 7.26565 14.0078C7.30082 13.9528 7.32448 13.8912 7.33522 13.8267C7.34596 13.7623 7.34356 13.6963 7.32815 13.6328C7.31149 13.5679 7.28131 13.5072 7.23957 13.4547C7.19784 13.4021 7.14549 13.359 7.08596 13.3282C7.07033 13.3282 5.89846 12.7188 4.88283 11.3282C3.67189 9.67191 3.19533 7.64847 3.46096 5.31253C4.60158 6.28128 7.06252 8.10941 9.92189 8.58597C9.98919 8.59875 10.0585 8.59638 10.1248 8.57901C10.191 8.56164 10.2526 8.52972 10.305 8.48558C10.3573 8.44143 10.3992 8.38616 10.4276 8.32379C10.4559 8.26143 10.47 8.19353 10.4688 8.12503V6.87503C10.475 6.16705 10.7611 5.49029 11.2646 4.99259C11.7682 4.49488 12.4483 4.21669 13.1563 4.21878C13.6678 4.22617 14.1665 4.38028 14.5931 4.66281C15.0197 4.94533 15.3561 5.34438 15.5625 5.81253C15.5982 5.89675 15.6581 5.96846 15.7346 6.01854C15.8111 6.06863 15.9008 6.09482 15.9922 6.09378H17.6172L15.8985 7.81253Z" fill="#DAC5A7"/>
</svg>
